<svg width="11" height="15" viewBox="0 0 11 15" fill="none" xmlns="http://www.w3.org/2000/svg">
<path d="M8.92059 6.98964C8.99215 6.9152 9.03175 6.81548 9.03086 6.71199C9.02996 6.60849 8.98865 6.50948 8.91581 6.43629C8.84297 6.36311 8.74443 6.32159 8.64143 6.32069C8.53842 6.31979 8.43919 6.35958 8.36509 6.43149L5.49999 9.3103L4.20631 8.01043C4.13221 7.93853 4.03298 7.89874 3.92997 7.89964C3.82697 7.90054 3.72843 7.94205 3.65559 8.01524C3.58275 8.08843 3.54144 8.18743 3.54054 8.29093C3.53965 8.39443 3.57924 8.49414 3.65081 8.56859L5.49999 10.4266L8.92059 6.98964Z" fill="#00FF80"/>
<path fill-rule="evenodd" clip-rule="evenodd" d="M11.0003 3.94737V12.2368C11.0003 12.5509 10.8762 12.8521 10.6552 13.0742C10.4341 13.2963 10.1344 13.4211 9.82178 13.4211H2.75035C2.43777 13.4211 2.138 13.2963 1.91697 13.0742C1.69595 12.8521 1.57178 12.5509 1.57178 12.2368V1.18421C1.57178 0.870138 1.69595 0.56893 1.91697 0.346847C2.138 0.124765 2.43777 0 2.75035 0H7.07178L11.0003 3.94737ZM7.07178 4.34211C6.96758 4.34211 6.86766 4.30052 6.79398 4.22649C6.72031 4.15246 6.67892 4.05206 6.67892 3.94737V0.789474H2.75035C2.64616 0.789474 2.54623 0.831062 2.47256 0.905089C2.39888 0.979117 2.35749 1.07952 2.35749 1.18421V12.2368C2.35749 12.3415 2.39888 12.4419 2.47256 12.516C2.54623 12.59 2.64616 12.6316 2.75035 12.6316H9.82178C9.92597 12.6316 10.0259 12.59 10.0996 12.516C10.1732 12.4419 10.2146 12.3415 10.2146 12.2368V4.34211H7.07178ZM7.46463 1.51105L9.49649 3.55263H7.46463V1.51105Z" fill="#00FF80"/>
<path d="M0.785714 2.36841V13.0263C0.785714 13.3404 0.909885 13.6416 1.13091 13.8637C1.35193 14.0857 1.65171 14.2105 1.96429 14.2105H9.42857V15H1.96429C1.44332 15 0.943701 14.792 0.575326 14.4219C0.206951 14.0518 0 13.5498 0 13.0263V2.36841H0.785714Z" fill="#00FF80"/>
</svg>
