<svg width="40" height="39" viewBox="0 0 40 39" fill="none" xmlns="http://www.w3.org/2000/svg">
<g clip-path="url(#clip0_528_190)">
<path d="M20 9.75C21.8333 9.75 23.3333 11.2125 23.3333 13C23.3333 14.7875 21.8333 16.25 20 16.25C18.1666 16.25 16.6666 14.7875 16.6666 13C16.6666 11.2125 18.1666 9.75 20 9.75ZM20 26C24.5 26 29.6666 28.0963 30 29.25H9.99996C10.3833 28.08 15.5166 26 20 26ZM20 6.5C16.3166 6.5 13.3333 9.40875 13.3333 13C13.3333 16.5913 16.3166 19.5 20 19.5C23.6833 19.5 26.6666 16.5913 26.6666 13C26.6666 9.40875 23.6833 6.5 20 6.5ZM20 22.75C15.55 22.75 6.66663 24.9275 6.66663 29.25V32.5H33.3333V29.25C33.3333 24.9275 24.45 22.75 20 22.75Z" fill="black"/>
</g>
<defs>
<clipPath id="clip0_528_190">
<rect width="40" height="39" fill="white"/>
</clipPath>
</defs>
</svg>
