<svg width="8" height="36" viewBox="0 0 8 36" fill="none" xmlns="http://www.w3.org/2000/svg">
<path d="M3.99988 6.67912e-09C4.7836 -4.52748e-05 5.55007 0.230152 6.20408 0.661999C6.85809 1.09385 7.37084 1.70832 7.67863 2.42909C7.98641 3.14986 8.07569 3.94517 7.93535 4.71625C7.79502 5.48732 7.43126 6.20018 6.88926 6.76629C6.34726 7.33239 5.65091 7.72679 4.88668 7.90051C4.12246 8.07422 3.32404 8.01959 2.59059 7.74341C1.85715 7.46723 1.22099 6.98166 0.761144 6.34701C0.301295 5.71236 0.0380134 4.9566 0.00399998 4.1736L0 4L0.00399998 3.8264C0.0487341 2.7966 0.489271 1.82382 1.23374 1.11093C1.97821 0.398033 2.96914 5.95607e-05 3.99988 6.67912e-09Z" fill="#BBBBBB"/>
<path d="M3.99988 14C4.7836 14 5.55007 14.2302 6.20408 14.662C6.85809 15.0938 7.37084 15.7083 7.67863 16.4291C7.98641 17.1499 8.07569 17.9452 7.93535 18.7162C7.79502 19.4873 7.43126 20.2002 6.88926 20.7663C6.34726 21.3324 5.65091 21.7268 4.88668 21.9005C4.12246 22.0742 3.32404 22.0196 2.59059 21.7434C1.85715 21.4672 1.22099 20.9817 0.761144 20.347C0.301295 19.7124 0.0380134 18.9566 0.00399998 18.1736L0 18L0.00399998 17.8264C0.0487341 16.7966 0.489271 15.8238 1.23374 15.1109C1.97821 14.398 2.96914 14.0001 3.99988 14Z" fill="#BBBBBB"/>
<path d="M3.99988 28C4.7836 28 5.55007 28.2302 6.20408 28.662C6.85809 29.0938 7.37084 29.7083 7.67863 30.4291C7.98641 31.1499 8.07569 31.9452 7.93535 32.7162C7.79502 33.4873 7.43126 34.2002 6.88926 34.7663C6.34726 35.3324 5.65091 35.7268 4.88668 35.9005C4.12246 36.0742 3.32404 36.0196 2.59059 35.7434C1.85715 35.4672 1.22099 34.9817 0.761144 34.347C0.301295 33.7124 0.0380134 32.9566 0.00399998 32.1736L0 32L0.00399998 31.8264C0.0487341 30.7966 0.489271 29.8238 1.23374 29.1109C1.97821 28.398 2.96914 28.0001 3.99988 28Z" fill="#BBBBBB"/>
</svg>
