<svg width="57" height="51" viewBox="0 0 57 51" fill="none" xmlns="http://www.w3.org/2000/svg">
<path d="M48.7635 5.66667H54.15V0H2.85V5.66667H8.2365C2.96342 10.9365 0.00232866 18.0668 0 25.5C0 36.7483 6.5835 46.4383 16.131 51H40.869C45.7033 48.6948 49.7832 45.0773 52.6375 40.5652C55.4918 36.053 57.0042 30.8303 57 25.5C57 17.765 53.8365 10.7667 48.7635 5.66667ZM12.312 9.66167L16.245 5.66667H40.755L44.688 9.66167C46.2386 11.2005 47.5541 12.957 48.5925 14.875C45.4605 14.3715 42.4866 13.1598 39.9 11.3333C32.946 16.1783 24.054 16.1783 17.1 11.3333C14.421 13.2033 11.4 14.4217 8.4075 14.875C9.4335 12.9767 10.7445 11.22 12.312 9.66167ZM39.4725 45.3333H17.5275C13.9376 43.3982 10.9422 40.5322 8.85959 37.0399C6.77702 33.5477 5.68514 29.5598 5.7 25.5C5.7 23.885 5.8995 22.27 6.2415 20.74C10.0285 20.6381 13.7421 19.6787 17.1 17.935C24.225 21.6183 32.775 21.6183 39.9 17.935C43.32 19.6917 47.025 20.655 50.7585 20.74C51.1005 22.27 51.3 23.885 51.3 25.5C51.3148 29.5598 50.223 33.5477 48.1404 37.0399C46.0578 40.5322 43.0624 43.3982 39.4725 45.3333ZM42.75 32.5833C42.75 36.4933 37.962 39.6667 32.0625 39.6667C28.7565 39.6667 25.821 38.6467 23.7405 37.2867C21.8595 39.6667 18.0405 39.6667 14.25 39.6667C17.385 39.6667 18.525 36.4933 18.525 32.5833C18.525 28.6733 17.385 25.5 14.25 25.5C18.0405 25.5 21.8595 25.5 23.8545 28.0783C25.821 26.52 28.7565 25.5 32.0625 25.5C37.962 25.5 42.75 28.6733 42.75 32.5833Z" fill="white"/>
</svg>
