<svg width="21" height="13" viewBox="0 0 21 13" fill="none" xmlns="http://www.w3.org/2000/svg">
<path fill-rule="evenodd" clip-rule="evenodd" d="M12.0707 12.3411C11.6576 12.763 11.0975 13 10.5136 13C9.9297 13 9.36966 12.763 8.95651 12.3411L0.645065 3.84598C0.231899 3.42334 -0.000137682 2.85018 6.12906e-08 2.25261C0.000137804 1.65504 0.232438 1.082 0.645799 0.659556C1.05916 0.237109 1.61972 -0.000140774 2.20416 6.26672e-08C2.78861 0.0001409 3.34906 0.23766 3.76222 0.660306L10.5136 7.56335L17.265 0.660306C17.6804 0.249708 18.2369 0.0223512 18.8146 0.027204C19.3924 0.0320568 19.9452 0.268731 20.3539 0.686251C20.7626 1.10377 20.9946 1.66873 20.9999 2.25945C21.0052 2.85016 20.7834 3.41937 20.3822 3.84448L12.0722 12.3426L12.0707 12.3411Z" fill="#407BFF"/>
</svg>
