<svg width="70" height="70" viewBox="0 0 70 70" fill="none" xmlns="http://www.w3.org/2000/svg">
<path d="M38.9084 23.829C36.1959 23.829 33.9792 21.5832 33.9792 18.8707C33.9792 17.5634 34.4986 16.3096 35.423 15.3852C36.3474 14.4608 37.6011 13.9415 38.9084 13.9415C41.6501 13.9415 43.8667 16.1582 43.8667 18.8707C43.8667 21.5832 41.6501 23.829 38.9084 23.829ZM30.0417 58.129L12.7459 54.6873L13.7376 49.729L25.8417 52.2082L29.7792 32.1998L25.3459 33.9498V42.2915H20.4167V30.7415L33.2501 25.2873L35.2042 25.054C36.9542 25.054 38.4126 26.0457 39.3751 27.5332L41.8834 31.4707C43.8667 34.9998 47.8042 37.3915 52.5001 37.3915V42.2915C47.0751 42.2915 42.1167 39.8707 38.9084 36.1665L37.4501 43.5748L42.6126 48.504V67.0832H37.6834V52.2082L32.4917 47.279L30.0417 58.129ZM61.2501 67.0832H55.4167V8.74984H17.5001V46.9873L11.6667 45.7623V2.9165H61.2501V67.0832ZM17.5001 67.0832H11.6667V57.6915L17.5001 58.9165V67.0832Z" fill="#0075FF"/>
</svg>
