<svg width="70" height="70" viewBox="0 0 70 70" fill="none" xmlns="http://www.w3.org/2000/svg">
<rect width="70" height="70" fill="white"/>
<path fill-rule="evenodd" clip-rule="evenodd" d="M59.0625 26.25V50.3125H24.0625V6.5625H39.375V18.5938C39.375 22.82 42.805 26.25 47.0312 26.25H59.0625ZM45.9375 7.09188L58.5331 19.6875H47.0312C46.7412 19.6875 46.463 19.5723 46.2579 19.3671C46.0527 19.162 45.9375 18.8838 45.9375 18.5938V7.09188ZM21.875 0C20.7147 0 19.6019 0.460936 18.7814 1.28141C17.9609 2.10188 17.5 3.21468 17.5 4.375V13.125H9.84375C6.825 13.125 4.375 15.575 4.375 18.5938V64.5312C4.375 67.55 6.825 70 9.84375 70H45.9375C48.9562 70 51.4062 67.55 51.4062 64.5312V57.225C51.4066 57.1081 51.4008 56.9913 51.3888 56.875H61.25C62.4103 56.875 63.5231 56.4141 64.3436 55.5936C65.1641 54.7731 65.625 53.6603 65.625 52.5V19.3113C65.6248 18.151 65.1637 17.0384 64.3431 16.2181L49.4069 1.28188C48.5866 0.461347 47.474 0.000247789 46.3138 0H21.875ZM17.5 52.5V19.6875H10.9375V63.4375H44.8438V57.225C44.8438 57.1069 44.8481 56.9888 44.8612 56.875H21.875C20.7147 56.875 19.6019 56.4141 18.7814 55.5936C17.9609 54.7731 17.5 53.6603 17.5 52.5Z" fill="#0075FF"/>
</svg>
