<svg width="40" height="40" viewBox="0 0 40 40" fill="none" xmlns="http://www.w3.org/2000/svg">
<path d="M6.66663 6.66659C6.66663 5.78253 7.01782 4.93468 7.64294 4.30956C8.26806 3.68444 9.1159 3.33325 9.99996 3.33325H23.3333C23.7753 3.33335 24.1991 3.509 24.5116 3.82159L32.845 12.1549C33.1575 12.4674 33.3332 12.8913 33.3333 13.3333V33.3333C33.3333 34.2173 32.9821 35.0652 32.357 35.6903C31.7319 36.3154 30.884 36.6666 30 36.6666H9.99996C9.1159 36.6666 8.26806 36.3154 7.64294 35.6903C7.01782 35.0652 6.66663 34.2173 6.66663 33.3333V6.66659ZM29.31 13.3333L23.3333 7.35659V13.3333H29.31ZM20 6.66659H9.99996V33.3333H30V16.6666H21.6666C21.2246 16.6666 20.8007 16.491 20.4881 16.1784C20.1756 15.8659 20 15.4419 20 14.9999V6.66659ZM13.3333 21.6666C13.3333 21.2246 13.5089 20.8006 13.8214 20.4881C14.134 20.1755 14.5579 19.9999 15 19.9999H25C25.442 19.9999 25.8659 20.1755 26.1785 20.4881C26.491 20.8006 26.6666 21.2246 26.6666 21.6666C26.6666 22.1086 26.491 22.5325 26.1785 22.8451C25.8659 23.1577 25.442 23.3333 25 23.3333H15C14.5579 23.3333 14.134 23.1577 13.8214 22.8451C13.5089 22.5325 13.3333 22.1086 13.3333 21.6666ZM13.3333 28.3333C13.3333 27.8912 13.5089 27.4673 13.8214 27.1547C14.134 26.8422 14.5579 26.6666 15 26.6666H25C25.442 26.6666 25.8659 26.8422 26.1785 27.1547C26.491 27.4673 26.6666 27.8912 26.6666 28.3333C26.6666 28.7753 26.491 29.1992 26.1785 29.5118C25.8659 29.8243 25.442 29.9999 25 29.9999H15C14.5579 29.9999 14.134 29.8243 13.8214 29.5118C13.5089 29.1992 13.3333 28.7753 13.3333 28.3333Z" fill="#858585"/>
</svg>
