<svg width="40" height="40" viewBox="0 0 40 40" fill="none" xmlns="http://www.w3.org/2000/svg">
<path d="M6.66675 6.66683C6.66675 5.78277 7.01794 4.93493 7.64306 4.30981C8.26818 3.68469 9.11603 3.3335 10.0001 3.3335H23.3334C23.7754 3.33359 24.1993 3.50925 24.5117 3.82183L32.8451 12.1552C33.1577 12.4677 33.3333 12.8915 33.3334 13.3335V33.3335C33.3334 34.2176 32.9822 35.0654 32.3571 35.6905C31.732 36.3156 30.8841 36.6668 30.0001 36.6668H10.0001C9.11603 36.6668 8.26818 36.3156 7.64306 35.6905C7.01794 35.0654 6.66675 34.2176 6.66675 33.3335V6.66683ZM29.3101 13.3335L23.3334 7.35683V13.3335H29.3101ZM20.0001 6.66683H10.0001V33.3335H30.0001V16.6668H21.6667C21.2247 16.6668 20.8008 16.4912 20.4882 16.1787C20.1757 15.8661 20.0001 15.4422 20.0001 15.0002V6.66683ZM13.3334 21.6668C13.3334 21.2248 13.509 20.8009 13.8216 20.4883C14.1341 20.1758 14.5581 20.0002 15.0001 20.0002H25.0001C25.4421 20.0002 25.866 20.1758 26.1786 20.4883C26.4912 20.8009 26.6667 21.2248 26.6667 21.6668C26.6667 22.1089 26.4912 22.5328 26.1786 22.8453C25.866 23.1579 25.4421 23.3335 25.0001 23.3335H15.0001C14.5581 23.3335 14.1341 23.1579 13.8216 22.8453C13.509 22.5328 13.3334 22.1089 13.3334 21.6668ZM13.3334 28.3335C13.3334 27.8915 13.509 27.4675 13.8216 27.155C14.1341 26.8424 14.5581 26.6668 15.0001 26.6668H25.0001C25.4421 26.6668 25.866 26.8424 26.1786 27.155C26.4912 27.4675 26.6667 27.8915 26.6667 28.3335C26.6667 28.7755 26.4912 29.1994 26.1786 29.512C25.866 29.8246 25.4421 30.0002 25.0001 30.0002H15.0001C14.5581 30.0002 14.1341 29.8246 13.8216 29.512C13.509 29.1994 13.3334 28.7755 13.3334 28.3335Z" fill="black"/>
</svg>
