<svg width="40" height="40" viewBox="0 0 40 40" fill="none" xmlns="http://www.w3.org/2000/svg">
<path d="M31.9286 21.5714H21.5714V31.9286C21.5714 33.0679 20.6393 34 19.5 34C18.3607 34 17.4286 33.0679 17.4286 31.9286V21.5714H7.07143C5.93214 21.5714 5 20.6393 5 19.5C5 18.3607 5.93214 17.4286 7.07143 17.4286H17.4286V7.07143C17.4286 5.93214 18.3607 5 19.5 5C20.6393 5 21.5714 5.93214 21.5714 7.07143V17.4286H31.9286C33.0679 17.4286 34 18.3607 34 19.5C34 20.6393 33.0679 21.5714 31.9286 21.5714Z" fill="#00FF80"/>
</svg>
