<svg width="51" height="42" viewBox="0 0 51 42" fill="none" xmlns="http://www.w3.org/2000/svg">
<path d="M8.74286 9.41379C8.74286 7.68531 9.4337 6.02763 10.6634 4.80541C11.8931 3.58319 13.5609 2.89655 15.3 2.89655C17.0391 2.89655 18.7069 3.58319 19.9366 4.80541C21.1663 6.02763 21.8571 7.68531 21.8571 9.41379C21.8571 11.1423 21.1663 12.8 19.9366 14.0222C18.7069 15.2444 17.0391 15.931 15.3 15.931C13.5609 15.931 11.8931 15.2444 10.6634 14.0222C9.4337 12.8 8.74286 11.1423 8.74286 9.41379ZM15.3 0C12.788 0 10.3789 0.991807 8.60269 2.75724C6.82645 4.52266 5.82857 6.9171 5.82857 9.41379C5.82857 11.9105 6.82645 14.3049 8.60269 16.0703C10.3789 17.8358 12.788 18.8276 15.3 18.8276C17.812 18.8276 20.2211 17.8358 21.9973 16.0703C23.7735 14.3049 24.7714 11.9105 24.7714 9.41379C24.7714 6.9171 23.7735 4.52266 21.9973 2.75724C20.2211 0.991807 17.812 0 15.3 0ZM24.7714 21.7241C25.4971 21.7241 26.1907 21.8545 26.8318 22.0978C25.4155 22.567 24.1915 23.4592 23.3143 24.6207H5.82857C5.05565 24.6207 4.31439 24.9259 3.76786 25.4691C3.22133 26.0123 2.91429 26.749 2.91429 27.5172V27.7432L2.93469 27.9836C3.0926 29.3721 3.59094 30.7009 4.386 31.8534C5.80526 33.8926 8.78074 36.2069 15.3 36.2069C18.0773 36.2069 20.2135 35.7869 21.8571 35.1468V37.6552C21.8571 37.8405 21.863 38.023 21.8775 38.2055C20.0649 38.7674 17.8937 39.1034 15.3 39.1034C7.9764 39.1034 4.03046 36.4386 1.98754 33.5015C0.911659 31.9439 0.240815 30.1457 0.0349713 28.2674C0.0175569 28.0989 0.00589319 27.9299 0 27.7605V27.5172C0 25.9808 0.61408 24.5073 1.70715 23.4209C2.80022 22.3345 4.28274 21.7241 5.82857 21.7241H24.7714ZM33.5143 11.5862C33.5143 10.4339 33.9748 9.32876 34.7946 8.51395C35.6144 7.69914 36.7263 7.24138 37.8857 7.24138C39.0451 7.24138 40.157 7.69914 40.9768 8.51395C41.7966 9.32876 42.2571 10.4339 42.2571 11.5862C42.2571 12.7385 41.7966 13.8437 40.9768 14.6585C40.157 15.4733 39.0451 15.931 37.8857 15.931C36.7263 15.931 35.6144 15.4733 34.7946 14.6585C33.9748 13.8437 33.5143 12.7385 33.5143 11.5862ZM37.8857 4.34483C35.9534 4.34483 34.1003 5.10776 32.7339 6.46578C31.3676 7.8238 30.6 9.66567 30.6 11.5862C30.6 13.5067 31.3676 15.3486 32.7339 16.7066C34.1003 18.0647 35.9534 18.8276 37.8857 18.8276C39.818 18.8276 41.6712 18.0647 43.0375 16.7066C44.4038 15.3486 45.1714 13.5067 45.1714 11.5862C45.1714 9.66567 44.4038 7.8238 43.0375 6.46578C41.6712 5.10776 39.818 4.34483 37.8857 4.34483ZM24.7714 28.9655C24.7714 27.8132 25.232 26.7081 26.0518 25.8933C26.8716 25.0784 27.9835 24.6207 29.1429 24.6207H46.6286C47.7879 24.6207 48.8998 25.0784 49.7196 25.8933C50.5394 26.7081 51 27.8132 51 28.9655V37.6552C51 38.8075 50.5394 39.9126 49.7196 40.7274C48.8998 41.5422 47.7879 42 46.6286 42H29.1429C27.9835 42 26.8716 41.5422 26.0518 40.7274C25.232 39.9126 24.7714 38.8075 24.7714 37.6552V28.9655ZM27.6857 28.9655V31.8621C28.8451 31.8621 29.957 31.4043 30.7768 30.5895C31.5966 29.7747 32.0571 28.6696 32.0571 27.5172H29.1429C29.1429 27.9013 28.9893 28.2697 28.7161 28.5413C28.4428 28.8129 28.0722 28.9655 27.6857 28.9655ZM48.0857 31.8621V28.9655C47.6993 28.9655 47.3286 28.8129 47.0554 28.5413C46.7821 28.2697 46.6286 27.9013 46.6286 27.5172H43.7143C43.7143 28.6696 44.1748 29.7747 44.9946 30.5895C45.8144 31.4043 46.9263 31.8621 48.0857 31.8621ZM43.7143 39.1034H46.6286C46.6286 38.7193 46.7821 38.351 47.0554 38.0794C47.3286 37.8078 47.6993 37.6552 48.0857 37.6552V34.7586C46.9263 34.7586 45.8144 35.2164 44.9946 36.0312C44.1748 36.846 43.7143 37.9511 43.7143 39.1034ZM27.6857 34.7586V37.6552C28.0722 37.6552 28.4428 37.8078 28.7161 38.0794C28.9893 38.351 29.1429 38.7193 29.1429 39.1034H32.0571C32.0571 37.9511 31.5966 36.846 30.7768 36.0312C29.957 35.2164 28.8451 34.7586 27.6857 34.7586ZM37.8857 37.6552C39.0451 37.6552 40.157 37.1974 40.9768 36.3826C41.7966 35.5678 42.2571 34.4627 42.2571 33.3103C42.2571 32.158 41.7966 31.0529 40.9768 30.2381C40.157 29.4233 39.0451 28.9655 37.8857 28.9655C36.7263 28.9655 35.6144 29.4233 34.7946 30.2381C33.9748 31.0529 33.5143 32.158 33.5143 33.3103C33.5143 34.4627 33.9748 35.5678 34.7946 36.3826C35.6144 37.1974 36.7263 37.6552 37.8857 37.6552Z" fill="white"/>
</svg>
