<svg width="71" height="59" viewBox="0 0 71 59" fill="none" xmlns="http://www.w3.org/2000/svg">
<path d="M64.8845 0C54.3389 1.67927 39.4826 6.62319 28.2359 14.9665C28.2956 14.9968 28.3553 15.0422 28.4149 15.0725C29.1309 15.5419 29.7275 16.1779 30.1303 16.9502C39.9748 9.75762 52.9815 5.08626 62.7962 3.14806V51.5803H65.4811V1.92154C65.4363 1.13415 65.0187 0.0984242 64.8845 0ZM13.4393 0.86159C10.656 0.86159 8.19931 3.64775 8.19931 7.35002C8.19931 11.0598 10.656 13.846 13.4393 13.846C16.2286 13.846 18.6748 11.0598 18.6748 7.35002C18.6748 3.64775 16.2286 0.86159 13.4393 0.86159ZM9.20763 15.1482C6.72412 21.5382 5.68597 28.2159 4.97149 34.3637C8.61994 34.2274 12.167 34.0003 15.5574 33.6823C15.2889 31.5169 15.1248 29.3667 15.0353 27.2166C13.842 26.3232 12.6189 25.2784 11.3973 24.173L13.1857 22.1439C14.8116 23.6127 16.3926 24.9301 17.7947 25.8538C19.1819 26.7926 20.42 27.2923 21.0613 27.3377H21.0763C21.0017 27.3377 21.3895 27.2771 21.9265 26.9137C22.4485 26.5352 23.1197 25.9295 23.8059 25.1724C25.1782 23.6733 26.6697 21.5534 27.7884 19.4486C27.9824 19.0852 27.9824 18.7824 27.8332 18.4038C27.699 18.0253 27.3708 17.6164 26.9532 17.359C26.5504 17.0864 26.088 16.9653 25.7002 17.0107C25.3124 17.0562 24.9395 17.2076 24.5218 17.783L20.5244 23.219L14.2597 16.511C13.9912 16.5565 13.7227 16.5716 13.4393 16.5716C11.8642 16.5716 10.4203 16.0416 9.20763 15.1482ZM38.0805 32.91C28.6685 35.0754 15.08 37.059 0.14916 37.165V51.4289H20.8376C28.8624 47.2648 35.2017 39.3606 38.0805 32.91ZM6.86134 53.8517C4.89542 53.8517 2.49544 54.5028 0.469853 55.1236C0.30876 55.169 0.155126 55.2145 0 55.275V58.1218C0.386324 58.0006 0.803971 57.8643 1.24697 57.7281C3.17412 57.1375 5.54725 56.5773 6.86134 56.5773C8.17544 56.5773 9.58948 57.0921 11.1557 57.6978C12.7233 58.3035 14.4387 59 16.4076 59C18.3765 59 20.0918 58.3035 21.658 57.6978C23.2242 57.0921 24.6412 56.5773 25.9538 56.5773C27.2664 56.5773 28.6834 57.0921 30.2496 57.6978C31.8158 58.3035 33.5311 59 35.5 59C37.4689 59 39.1842 58.3035 40.7504 57.6978C42.3166 57.0921 43.7336 56.5773 45.0462 56.5773C46.3588 56.5773 47.7758 57.0921 49.342 57.6978C50.9082 58.3035 52.6235 59 54.5924 59C56.5613 59 58.2767 58.3035 59.8429 57.6978C61.409 57.0921 62.8261 56.5773 64.1387 56.5773C65.4513 56.5773 67.8229 57.1375 69.7471 57.7281C70.1945 57.8643 70.6122 58.0006 71 58.1218V55.275C70.8508 55.2145 70.7017 55.169 70.5376 55.1236C68.509 54.5028 66.1076 53.8517 64.1387 53.8517C62.1697 53.8517 60.4544 54.5482 58.8882 55.1539C57.3221 55.7596 55.905 56.2744 54.5924 56.2744C53.2798 56.2744 51.8628 55.7596 50.2966 55.1539C48.7305 54.5482 47.0151 53.8517 45.0462 53.8517C43.0773 53.8517 41.362 54.5482 39.7958 55.1539C38.2296 55.7596 36.8126 56.2744 35.5 56.2744C34.1874 56.2744 32.7704 55.7596 31.2042 55.1539C29.638 54.5482 27.9227 53.8517 25.9538 53.8517C23.9849 53.8517 22.2695 54.5482 20.7034 55.1539C19.1372 55.7596 17.7202 56.2744 16.4076 56.2744C15.095 56.2744 13.6779 55.7596 12.1118 55.1539C10.5456 54.5482 8.82727 53.8517 6.86134 53.8517Z" fill="white"/>
</svg>
