<svg width="42" height="40" viewBox="0 0 42 40" fill="none" xmlns="http://www.w3.org/2000/svg">
<g clip-path="url(#clip0_528_205)">
<path d="M19.1158 29.9999H22.5914V26.6666H19.1158V29.9999ZM20.8536 3.33325C11.261 3.33325 3.47559 10.7999 3.47559 19.9999C3.47559 29.1999 11.261 36.6666 20.8536 36.6666C30.4463 36.6666 38.2317 29.1999 38.2317 19.9999C38.2317 10.7999 30.4463 3.33325 20.8536 3.33325ZM20.8536 33.3333C13.1899 33.3333 6.9512 27.3499 6.9512 19.9999C6.9512 12.6499 13.1899 6.66659 20.8536 6.66659C28.5174 6.66659 34.7561 12.6499 34.7561 19.9999C34.7561 27.3499 28.5174 33.3333 20.8536 33.3333ZM20.8536 9.99992C17.0131 9.99992 13.9024 12.9833 13.9024 16.6666H17.378C17.378 14.8333 18.942 13.3333 20.8536 13.3333C22.7652 13.3333 24.3292 14.8333 24.3292 16.6666C24.3292 19.9999 19.1158 19.5833 19.1158 24.9999H22.5914C22.5914 21.2499 27.8049 20.8333 27.8049 16.6666C27.8049 12.9833 24.6942 9.99992 20.8536 9.99992Z" fill="#858585"/>
</g>
<defs>
<clipPath id="clip0_528_205">
<rect width="41.7073" height="40" fill="white"/>
</clipPath>
</defs>
</svg>
