<svg width="42" height="40" viewBox="0 0 42 40" fill="none" xmlns="http://www.w3.org/2000/svg">
<g clip-path="url(#clip0_512_462)">
<path d="M19.1158 30.0002H22.5914V26.6668H19.1158V30.0002ZM20.8536 3.3335C11.261 3.3335 3.47559 10.8002 3.47559 20.0002C3.47559 29.2002 11.261 36.6668 20.8536 36.6668C30.4463 36.6668 38.2317 29.2002 38.2317 20.0002C38.2317 10.8002 30.4463 3.3335 20.8536 3.3335ZM20.8536 33.3335C13.1899 33.3335 6.9512 27.3502 6.9512 20.0002C6.9512 12.6502 13.1899 6.66683 20.8536 6.66683C28.5174 6.66683 34.7561 12.6502 34.7561 20.0002C34.7561 27.3502 28.5174 33.3335 20.8536 33.3335ZM20.8536 10.0002C17.0131 10.0002 13.9024 12.9835 13.9024 16.6668H17.378C17.378 14.8335 18.942 13.3335 20.8536 13.3335C22.7652 13.3335 24.3292 14.8335 24.3292 16.6668C24.3292 20.0002 19.1158 19.5835 19.1158 25.0002H22.5914C22.5914 21.2502 27.8049 20.8335 27.8049 16.6668C27.8049 12.9835 24.6942 10.0002 20.8536 10.0002Z" fill="black"/>
</g>
<defs>
<clipPath id="clip0_512_462">
<rect width="41.7073" height="40" fill="white"/>
</clipPath>
</defs>
</svg>
