<svg width="30" height="30" viewBox="0 0 30 30" fill="none" xmlns="http://www.w3.org/2000/svg">
<path d="M15 0C6.71631 0 0 6.71873 0 15C0 23.2861 6.71631 30 15 30C23.2837 30 30 23.2861 30 15C30 6.71873 23.2837 0 15 0ZM15 6.65323C16.403 6.65323 17.5403 7.79056 17.5403 9.19355C17.5403 10.5965 16.403 11.7339 15 11.7339C13.597 11.7339 12.4597 10.5965 12.4597 9.19355C12.4597 7.79056 13.597 6.65323 15 6.65323ZM18.3871 22.0161C18.3871 22.417 18.0621 22.7419 17.6613 22.7419H12.3387C11.9379 22.7419 11.6129 22.417 11.6129 22.0161V20.5645C11.6129 20.1637 11.9379 19.8387 12.3387 19.8387H13.0645V15.9677H12.3387C11.9379 15.9677 11.6129 15.6428 11.6129 15.2419V13.7903C11.6129 13.3895 11.9379 13.0645 12.3387 13.0645H16.2097C16.6105 13.0645 16.9355 13.3895 16.9355 13.7903V19.8387H17.6613C18.0621 19.8387 18.3871 20.1637 18.3871 20.5645V22.0161Z" fill="#33CCEE"/>
</svg>
