<svg width="30" height="22" viewBox="0 0 30 22" fill="none" xmlns="http://www.w3.org/2000/svg">
<path d="M30 11C30 11.4606 29.8104 11.9024 29.4728 12.2281C29.1352 12.5539 28.6774 12.7368 28.2 12.7368H1.8C1.32261 12.7368 0.864773 12.5539 0.527208 12.2281C0.189642 11.9024 0 11.4606 0 11C0 10.5394 0.189642 10.0976 0.527208 9.77187C0.864773 9.44615 1.32261 9.26316 1.8 9.26316H28.2C28.6774 9.26316 29.1352 9.44615 29.4728 9.77187C29.8104 10.0976 30 10.5394 30 11ZM1.8 3.47368H28.2C28.6774 3.47368 29.1352 3.2907 29.4728 2.96498C29.8104 2.63925 30 2.19748 30 1.73684C30 1.2762 29.8104 0.83443 29.4728 0.508709C29.1352 0.182988 28.6774 0 28.2 0H1.8C1.32261 0 0.864773 0.182988 0.527208 0.508709C0.189642 0.83443 0 1.2762 0 1.73684C0 2.19748 0.189642 2.63925 0.527208 2.96498C0.864773 3.2907 1.32261 3.47368 1.8 3.47368ZM28.2 18.5263H1.8C1.32261 18.5263 0.864773 18.7093 0.527208 19.035C0.189642 19.3607 0 19.8025 0 20.2632C0 20.7238 0.189642 21.1656 0.527208 21.4913C0.864773 21.817 1.32261 22 1.8 22H28.2C28.6774 22 29.1352 21.817 29.4728 21.4913C29.8104 21.1656 30 20.7238 30 20.2632C30 19.8025 29.8104 19.3607 29.4728 19.035C29.1352 18.7093 28.6774 18.5263 28.2 18.5263Z" fill="#BBBBBB"/>
</svg>
