<svg width="36" height="36" viewBox="0 0 36 36" fill="none" xmlns="http://www.w3.org/2000/svg">
<path d="M20.01 12.255C18.615 12.255 17.475 11.1 17.475 9.705C17.475 9.03268 17.7421 8.38789 18.2175 7.91248C18.6929 7.43708 19.3377 7.17 20.01 7.17C21.42 7.17 22.56 8.31 22.56 9.705C22.56 11.1 21.42 12.255 20.01 12.255ZM15.45 29.895L6.555 28.125L7.065 25.575L13.29 26.85L15.315 16.56L13.035 17.46V21.75H10.5V15.81L17.1 13.005L18.105 12.885C19.005 12.885 19.755 13.395 20.25 14.16L21.54 16.185C22.56 18 24.585 19.23 27 19.23V21.75C24.21 21.75 21.66 20.505 20.01 18.6L19.26 22.41L21.915 24.945V34.5H19.38V26.85L16.71 24.315L15.45 29.895ZM31.5 34.5H28.5V4.5H9V24.165L6 23.535V1.5H31.5V34.5ZM9 34.5H6V29.67L9 30.3V34.5Z" fill="#858585"/>
</svg>
