<svg width="40" height="40" viewBox="0 0 40 40" fill="none" xmlns="http://www.w3.org/2000/svg">
<path d="M18.3331 14.5833V20.7167C18.3331 21.3 18.6498 21.85 19.1498 22.15L24.3498 25.2333C24.9498 25.5833 25.7164 25.3833 26.0664 24.8C26.4164 24.2 26.2331 23.4333 25.6331 23.0833L20.8498 20.2333V14.5667C20.8331 13.9 20.2664 13.3333 19.5831 13.3333C18.8998 13.3333 18.3331 13.9 18.3331 14.5833ZM34.9998 15.8333V7.01668C34.9998 6.26668 34.0998 5.90002 33.5831 6.43335L30.6164 9.40002C29.0552 7.83871 27.1689 6.64089 25.0918 5.89189C23.0148 5.14289 20.7981 4.86113 18.5998 5.06668C11.6164 5.70002 5.86643 11.3167 5.09977 18.3C4.6945 22.2156 5.84474 26.1336 8.30233 29.2088C10.7599 32.284 14.3279 34.2698 18.2365 34.7378C22.1451 35.2059 26.0811 34.1187 29.1953 31.7108C32.3095 29.3029 34.3523 25.7673 34.8831 21.8667C34.9998 20.8667 34.2164 20 33.2164 20C32.3831 20 31.6831 20.6167 31.5831 21.4333C30.8664 27.25 25.8498 31.75 19.8331 31.6667C13.6498 31.5833 8.4331 26.3667 8.3331 20.1667C8.2331 13.6667 13.5164 8.33335 19.9998 8.33335C23.2164 8.33335 26.1331 9.65002 28.2498 11.75L24.7664 15.2333C24.2331 15.7667 24.5998 16.6667 25.3498 16.6667H34.1664C34.6331 16.6667 34.9998 16.3 34.9998 15.8333Z" fill="#FCAE1E"/>
</svg>
