<svg width="42" height="40" viewBox="0 0 42 40" fill="none" xmlns="http://www.w3.org/2000/svg">
<g clip-path="url(#clip0_528_196)">
<path d="M20.8536 36.6667C22.7652 36.6667 24.3292 35.1667 24.3292 33.3334H17.378C17.378 35.1667 18.942 36.6667 20.8536 36.6667ZM31.2804 26.6667V18.3334C31.2804 13.2167 28.4478 8.93341 23.4603 7.80008V6.66675C23.4603 5.28341 22.296 4.16675 20.8536 4.16675C19.4112 4.16675 18.2469 5.28341 18.2469 6.66675V7.80008C13.2768 8.93341 10.4268 13.2001 10.4268 18.3334V26.6667L6.95117 30.0001V31.6667H34.7561V30.0001L31.2804 26.6667ZM27.8048 28.3334H13.9024V18.3334C13.9024 14.2001 16.5265 10.8334 20.8536 10.8334C25.1807 10.8334 27.8048 14.2001 27.8048 18.3334V28.3334Z" fill="#858585"/>
</g>
<defs>
<clipPath id="clip0_528_196">
<rect width="41.7073" height="40" fill="white"/>
</clipPath>
</defs>
</svg>
