<svg width="42" height="40" viewBox="0 0 42 40" fill="none" xmlns="http://www.w3.org/2000/svg">
<g clip-path="url(#clip0_512_344)">
<path d="M20.8536 36.6665C22.7652 36.6665 24.3292 35.1665 24.3292 33.3332H17.378C17.378 35.1665 18.942 36.6665 20.8536 36.6665ZM31.2804 26.6665V18.3332C31.2804 13.2165 28.4478 8.93317 23.4603 7.79984V6.6665C23.4603 5.28317 22.296 4.1665 20.8536 4.1665C19.4112 4.1665 18.2469 5.28317 18.2469 6.6665V7.79984C13.2768 8.93317 10.4268 13.1998 10.4268 18.3332V26.6665L6.95117 29.9998V31.6665H34.7561V29.9998L31.2804 26.6665ZM27.8048 28.3332H13.9024V18.3332C13.9024 14.1998 16.5265 10.8332 20.8536 10.8332C25.1807 10.8332 27.8048 14.1998 27.8048 18.3332V28.3332Z" fill="black"/>
</g>
<defs>
<clipPath id="clip0_512_344">
<rect width="41.7073" height="40" fill="white"/>
</clipPath>
</defs>
</svg>
