<svg width="26" height="18" viewBox="0 0 26 18" fill="none" xmlns="http://www.w3.org/2000/svg">
<path d="M13 5.4C13.9403 5.4 14.8421 5.77928 15.507 6.45442C16.1719 7.12955 16.5455 8.04522 16.5455 9C16.5455 9.95478 16.1719 10.8705 15.507 11.5456C14.8421 12.2207 13.9403 12.6 13 12.6C12.0597 12.6 11.1579 12.2207 10.493 11.5456C9.82808 10.8705 9.45455 9.95478 9.45455 9C9.45455 8.04522 9.82808 7.12955 10.493 6.45442C11.1579 5.77928 12.0597 5.4 13 5.4ZM13 0C18.9091 0 23.9555 3.732 26 9C23.9555 14.268 18.9091 18 13 18C7.09091 18 2.04455 14.268 0 9C2.04455 3.732 7.09091 0 13 0ZM2.57636 9C3.53157 10.9804 5.01482 12.6489 6.85747 13.8159C8.70013 14.9829 10.8283 15.6016 13 15.6016C15.1717 15.6016 17.2999 14.9829 19.1425 13.8159C20.9852 12.6489 22.4684 10.9804 23.4236 9C22.4684 7.01963 20.9852 5.3511 19.1425 4.18409C17.2999 3.01709 15.1717 2.39842 13 2.39842C10.8283 2.39842 8.70013 3.01709 6.85747 4.18409C5.01482 5.3511 3.53157 7.01963 2.57636 9Z" fill="#407BFF"/>
</svg>
