<svg width="40" height="40" viewBox="0 0 40 40" fill="none" xmlns="http://www.w3.org/2000/svg">
<path fill-rule="evenodd" clip-rule="evenodd" d="M20 4C17.2015 3.99948 14.4519 4.73297 12.0254 6.12725C9.59903 7.52153 7.58075 9.52783 6.17205 11.9459C4.76335 14.364 4.0135 17.1092 3.99735 19.9077C3.9812 22.7061 4.69932 25.4598 6.08002 27.894C7.01324 26.6811 8.21287 25.6991 9.58618 25.0239C10.9595 24.3487 12.4697 23.9984 14 24H26C27.5303 23.9984 29.0405 24.3487 30.4138 25.0239C31.7871 25.6991 32.9868 26.6811 33.92 27.894C35.3007 25.4598 36.0188 22.7061 36.0026 19.9077C35.9865 17.1092 35.2367 14.364 33.828 11.9459C32.4193 9.52783 30.401 7.52153 27.9746 6.12725C25.5481 4.73297 22.7985 3.99948 20 4ZM35.886 32.152C38.56 28.6659 40.0064 24.3935 40 20C40 8.95399 31.046 0 20 0C8.95401 0 2.25065e-05 8.95399 2.25065e-05 20C-0.00658036 24.3935 1.43983 28.666 4.11402 32.152L4.10402 32.188L4.81402 33.014C6.68979 35.207 9.01878 36.9672 11.6405 38.1732C14.2622 39.3793 17.1142 40.0025 20 40C24.0547 40.0074 28.0148 38.7758 31.35 36.47C32.7718 35.4876 34.0611 34.326 35.186 33.014L35.896 32.188L35.886 32.152ZM20 7.99999C18.4087 7.99999 16.8826 8.63213 15.7574 9.75735C14.6321 10.8826 14 12.4087 14 14C14 15.5913 14.6321 17.1174 15.7574 18.2426C16.8826 19.3678 18.4087 20 20 20C21.5913 20 23.1174 19.3678 24.2426 18.2426C25.3679 17.1174 26 15.5913 26 14C26 12.4087 25.3679 10.8826 24.2426 9.75735C23.1174 8.63213 21.5913 7.99999 20 7.99999Z" fill="#0075FF"/>
</svg>
