<svg width="11" height="15" viewBox="0 0 11 15" fill="none" xmlns="http://www.w3.org/2000/svg">
<path d="M4.13736 6.13736C4.18084 6.09381 4.23248 6.05927 4.28932 6.0357C4.34617 6.01213 4.4071 6 4.46864 6C4.53017 6 4.59111 6.01213 4.64795 6.0357C4.7048 6.05927 4.75644 6.09381 4.79992 6.13736L6.50007 7.83689L8.20022 6.13736C8.24373 6.09385 8.29537 6.05935 8.35221 6.0358C8.40905 6.01226 8.46998 6.00014 8.5315 6.00014C8.59302 6.00014 8.65395 6.01226 8.71079 6.0358C8.76763 6.05935 8.81928 6.09385 8.86278 6.13736C8.90628 6.18086 8.94079 6.23251 8.96434 6.28935C8.98788 6.34619 9 6.40711 9 6.46864C9 6.53016 8.98788 6.59108 8.96434 6.64793C8.94079 6.70477 8.90628 6.75641 8.86278 6.79992L7.16325 8.50007L8.86278 10.2002C8.95064 10.2881 9 10.4072 9 10.5315C9 10.6558 8.95064 10.7749 8.86278 10.8628C8.77492 10.9506 8.65575 11 8.5315 11C8.40725 11 8.28808 10.9506 8.20022 10.8628L6.50007 9.16325L4.79992 10.8628C4.71206 10.9506 4.59289 11 4.46864 11C4.34438 11 4.22522 10.9506 4.13736 10.8628C4.0495 10.7749 4.00014 10.6558 4.00014 10.5315C4.00014 10.4072 4.0495 10.2881 4.13736 10.2002L5.83689 8.50007L4.13736 6.79992C4.09381 6.75644 4.05927 6.7048 4.0357 6.64795C4.01213 6.59111 4 6.53017 4 6.46864C4 6.4071 4.01213 6.34617 4.0357 6.28932C4.05927 6.23248 4.09381 6.18084 4.13736 6.13736Z" fill="#FF0000"/>
<path fill-rule="evenodd" clip-rule="evenodd" d="M11.0003 3.94737V12.2368C11.0003 12.5509 10.8762 12.8521 10.6552 13.0742C10.4341 13.2963 10.1344 13.4211 9.82178 13.4211H2.75035C2.43777 13.4211 2.138 13.2963 1.91697 13.0742C1.69595 12.8521 1.57178 12.5509 1.57178 12.2368V1.18421C1.57178 0.870138 1.69595 0.56893 1.91697 0.346847C2.138 0.124765 2.43777 0 2.75035 0H7.07178L11.0003 3.94737ZM7.07178 4.34211C6.96758 4.34211 6.86766 4.30052 6.79398 4.22649C6.72031 4.15246 6.67892 4.05206 6.67892 3.94737V0.789474H2.75035C2.64616 0.789474 2.54623 0.831062 2.47256 0.905089C2.39888 0.979117 2.35749 1.07952 2.35749 1.18421V12.2368C2.35749 12.3415 2.39888 12.4419 2.47256 12.516C2.54623 12.59 2.64616 12.6316 2.75035 12.6316H9.82178C9.92597 12.6316 10.0259 12.59 10.0996 12.516C10.1732 12.4419 10.2146 12.3415 10.2146 12.2368V4.34211H7.07178ZM7.46463 1.51105L9.49649 3.55263H7.46463V1.51105Z" fill="#FF0000"/>
<path d="M0.785714 2.36841V13.0263C0.785714 13.3404 0.909885 13.6416 1.13091 13.8637C1.35193 14.0857 1.65171 14.2105 1.96429 14.2105H9.42857V15H1.96429C1.44332 15 0.943701 14.792 0.575326 14.4219C0.206951 14.0518 0 13.5498 0 13.0263V2.36841H0.785714Z" fill="#FF0000"/>
</svg>
