<svg width="21" height="11" viewBox="0 0 21 11" fill="none" xmlns="http://www.w3.org/2000/svg">
<path d="M19.25 0H7.875C6.9125 0 6.125 0.761538 6.125 1.69231V9.30769C6.125 9.75652 6.30937 10.187 6.63756 10.5043C6.96575 10.8217 7.41087 11 7.875 11H19.25C20.2212 11 21 10.2469 21 9.30769V1.69231C21 1.24348 20.8156 0.813035 20.4874 0.495665C20.1592 0.178296 19.7141 0 19.25 0ZM19.25 9.30769H7.875V3.10538L13.5625 5.92308L19.25 3.10538V9.30769ZM13.5625 4.49308L7.875 1.69231H19.25L13.5625 4.49308ZM4.375 9.30769C4.375 9.45154 4.40125 9.58692 4.41875 9.73077H0.875C0.392 9.73077 0 9.35 0 8.88462C0 8.41923 0.392 8.03846 0.875 8.03846H4.375V9.30769ZM2.625 1.26923H4.41875C4.40125 1.41308 4.375 1.54846 4.375 1.69231V2.96154H2.625C2.14375 2.96154 1.75 2.58077 1.75 2.11538C1.75 1.65 2.14375 1.26923 2.625 1.26923ZM0.875 5.5C0.875 5.03462 1.26875 4.65385 1.75 4.65385H4.375V6.34615H1.75C1.26875 6.34615 0.875 5.96538 0.875 5.5Z" fill="#BBBBBB"/>
</svg>
