<svg width="30" height="27" viewBox="0 0 30 27" fill="none" xmlns="http://www.w3.org/2000/svg">
<path d="M3.14966 27H26.8503C29.2739 27 30.7847 24.3488 29.5729 22.2374L17.7226 1.58357C16.5108 -0.527856 13.4892 -0.527856 12.2774 1.58357L0.427071 22.2374C-0.784717 24.3488 0.726083 27 3.14966 27V27ZM15 15.8873C14.1344 15.8873 13.4262 15.1729 13.4262 14.2997V11.1247C13.4262 10.2515 14.1344 9.53712 15 9.53712C15.8656 9.53712 16.5738 10.2515 16.5738 11.1247V14.2997C16.5738 15.1729 15.8656 15.8873 15 15.8873ZM16.5738 22.2374H13.4262V19.0623H16.5738V22.2374Z" fill="#EE7700"/>
</svg>
