<svg width="25" height="25" viewBox="0 0 25 25" fill="none" xmlns="http://www.w3.org/2000/svg">
<path d="M0.686794 0.686794C0.904204 0.469074 1.1624 0.296351 1.44662 0.178505C1.73084 0.0606585 2.03551 0 2.34319 0C2.65087 0 2.95554 0.0606585 3.23976 0.178505C3.52398 0.296351 3.78218 0.469074 3.99959 0.686794L12.5003 9.18443L21.0011 0.686794C21.2186 0.469273 21.4769 0.296725 21.7611 0.179003C22.0453 0.0612818 22.3499 0.000691482 22.6575 0.000691475C22.9651 0.000691469 23.2697 0.0612818 23.5539 0.179003C23.8381 0.296725 24.0964 0.469273 24.3139 0.686794C24.5314 0.904315 24.704 1.16255 24.8217 1.44676C24.9394 1.73096 25 2.03557 25 2.34319C25 2.65081 24.9394 2.95542 24.8217 3.23963C24.704 3.52383 24.5314 3.78207 24.3139 3.99959L15.8163 12.5003L24.3139 21.0011C24.7532 21.4404 25 22.0362 25 22.6575C25 23.2788 24.7532 23.8746 24.3139 24.3139C23.8746 24.7532 23.2788 25 22.6575 25C22.0362 25 21.4404 24.7532 21.0011 24.3139L12.5003 15.8163L3.99959 24.3139C3.56028 24.7532 2.96446 25 2.34319 25C1.72192 25 1.1261 24.7532 0.686794 24.3139C0.24749 23.8746 0.000691475 23.2788 0.000691475 22.6575C0.000691475 22.0362 0.24749 21.4404 0.686794 21.0011L9.18443 12.5003L0.686794 3.99959C0.469074 3.78218 0.296351 3.52398 0.178505 3.23976C0.0606585 2.95554 0 2.65087 0 2.34319C0 2.03551 0.0606585 1.73084 0.178505 1.44662C0.296351 1.1624 0.469074 0.904204 0.686794 0.686794Z" fill="#0075FF"/>
</svg>
